# xmcd CD database file
#
# Track frame offsets:
#	150
#	90462
#	136752
#	196952
#	213977
#
# Disc length: 4731 seconds
#
# Revision: 2
# Processed by: cddbd v1.5.2PL0 Copyright (c) Steve Scherf et al.
# Submitted via: CDex 1.70beta2
#
DISCID=3b127905
DTITLE=Dyer, Wayne and Katie,  Byron - Vos pensées à votre service - CD1
DYEAR=2009
DGENRE=New Age
TTITLE0=Introduction
TTITLE1=Le Yoga
TTITLE2=Retournez au point zéro
TTITLE3=Byron Katie
TTITLE4=Le travail
EXTD=YEAR: 2009
EXTT0=
EXTT1=
EXTT2=
EXTT3=
EXTT4=
PLAYORDER=
